<?xml version="1.0" encoding="utf-8"?>
<!-- Generator: Adobe Illustrator 24.2.1, SVG Export Plug-In . SVG Version: 6.00 Build 0)  -->
<svg version="1.1"
	 id="Calque_1" xmlns:cc="http://creativecommons.org/ns#" xmlns:dc="http://purl.org/dc/elements/1.1/" xmlns:inkscape="http://www.inkscape.org/namespaces/inkscape" xmlns:rdf="http://www.w3.org/1999/02/22-rdf-syntax-ns#" xmlns:sodipodi="http://sodipodi.sourceforge.net/DTD/sodipodi-0.dtd" xmlns:svg="http://www.w3.org/2000/svg"
	 xmlns="http://www.w3.org/2000/svg" xmlns:xlink="http://www.w3.org/1999/xlink" x="0px" y="0px" viewBox="0 0 86 46"
	 style="enable-background:new 0 0 86 46;" xml:space="preserve">
<g transform="translate(0,-952.36218)">
	<path d="M43,952.4c-17.6,0-33.1,8.8-42.8,22.4c-0.2,0.3-0.2,0.8,0,1.2c9.7,13.6,25.3,22.4,42.8,22.4s33.1-8.8,42.8-22.4
		c0.2-0.3,0.2-0.8,0-1.2C76.1,961.2,60.6,952.4,43,952.4z M43,954.4c16.6,0,31.4,8.2,40.7,21c-9.4,12.8-24.1,21-40.7,21
		s-31.4-8.2-40.7-21C11.6,962.6,26.4,954.4,43,954.4z M43,962.4c-7.2,0-13,5.8-13,13c0,7.2,5.8,13,13,13s13-5.8,13-13
		C56,968.2,50.2,962.4,43,962.4z M43,964.4c6.1,0,11,4.9,11,11s-4.9,11-11,11s-11-4.9-11-11S36.9,964.4,43,964.4z"/>
</g>
</svg>
