<svg xmlns="http://www.w3.org/2000/svg" xmlns:xlink="http://www.w3.org/1999/xlink" xml:space="preserve" style="shape-rendering:geometricPrecision;text-rendering:geometricPrecision;image-rendering:optimizeQuality;" viewBox="0 0 5.909 7.3862499999999995" x="0px" y="0px" fill-rule="evenodd" clip-rule="evenodd"><defs><style type="text/css">
	
	.fil0 {fill:black}
	
</style></defs><g><path class="fil0" d="M2.9545 0c1.6317,0 2.9545,1.3228 2.9545,2.9545 0,1.6317 -1.3228,2.9545 -2.9545,2.9545 -1.6317,0 -2.9545,-1.3228 -2.9545,-2.9545 0,-1.6317 1.3228,-2.9545 2.9545,-2.9545zm-1.9466 2.6832c0.1557,-0.1558 0.4111,-0.1558 0.5669,0l0.7321 0.7323c0.4296,-0.348 1.295,-1.0284 2.2833,-1.8044 0.3026,-0.2396 0.5877,0.0747 0.3237,0.3327l-2.3233 2.3223c-0.1577,0.1578 -0.4077,0.1545 -0.567,0l-1.0157 -1.0158c-0.1561,-0.1559 -0.1561,-0.4111 0,-0.5671z"/></g><text x="0" y="20.909" fill="#000000" font-size="5px" font-weight="bold" font-family="'Helvetica Neue', Helvetica, Arial-Unicode, Arial, Sans-serif">Created by Mochammad Kafi</text><text x="0" y="25.909" fill="#261E79" font-size="5px" font-weight="bold" font-family="'Helvetica Neue', Helvetica, Arial-Unicode, Arial, Sans-serif">from the Noun Project</text></svg>